<svg width="46" height="46" viewBox="0 0 46 46" fill="none" xmlns="http://www.w3.org/2000/svg">
<circle cx="23" cy="23" r="22" fill="white" stroke="#0F141E" stroke-width="2"/>
<path d="M23.4883 24.0039H18.416L18.3887 21.502H22.8184C23.5658 21.502 24.1992 21.3926 24.7188 21.1738C25.2474 20.946 25.6484 20.6224 25.9219 20.2031C26.1953 19.7747 26.332 19.2598 26.332 18.6582C26.332 17.9928 26.2044 17.4505 25.9492 17.0312C25.694 16.612 25.3021 16.3066 24.7734 16.1152C24.2539 15.9238 23.5885 15.8281 22.7773 15.8281H19.4551V33H16.0234V13.0938H22.7773C23.8711 13.0938 24.8464 13.1986 25.7031 13.4082C26.569 13.6178 27.3027 13.946 27.9043 14.3926C28.515 14.8301 28.9753 15.3861 29.2852 16.0605C29.6042 16.735 29.7637 17.5371 29.7637 18.4668C29.7637 19.2871 29.5677 20.0391 29.1758 20.7227C28.7839 21.3971 28.2051 21.9486 27.4395 22.377C26.6738 22.8053 25.7214 23.0605 24.582 23.1426L23.4883 24.0039ZM23.3379 33H17.3359L18.8809 30.2793H23.3379C24.1126 30.2793 24.7598 30.1517 25.2793 29.8965C25.7988 29.6322 26.1862 29.2721 26.4414 28.8164C26.7057 28.3516 26.8379 27.8092 26.8379 27.1895C26.8379 26.5423 26.724 25.9818 26.4961 25.5078C26.2682 25.0247 25.9082 24.6556 25.416 24.4004C24.9238 24.1361 24.2812 24.0039 23.4883 24.0039H19.6328L19.6602 21.502H24.6777L25.457 22.4453C26.5508 22.4818 27.4486 22.7233 28.1504 23.1699C28.8613 23.6165 29.39 24.1953 29.7363 24.9062C30.0827 25.6172 30.2559 26.3828 30.2559 27.2031C30.2559 28.4701 29.9779 29.5319 29.4219 30.3887C28.875 31.2454 28.0866 31.8971 27.0566 32.3438C26.0267 32.7812 24.7871 33 23.3379 33Z" fill="#0F141E"/>
</svg>
